<svg width="32" height="32" viewBox="0 0 32 32" fill="none" xmlns="http://www.w3.org/2000/svg">
<g clip-path="url(#clip0_3577_126)">
<rect width="32" height="32" fill="#8ECAE6"/>
<path d="M21.827 4.1665V20.459C21.827 22.72 21.1731 24.4822 19.8653 25.7457C18.5574 26.9871 16.8063 27.6078 14.6118 27.6078C12.3951 27.6078 10.5996 26.9649 9.22525 25.6792C7.87308 24.3936 7.197 22.5981 7.197 20.2927H11.852C11.8742 21.2902 12.1069 22.0661 12.5503 22.6202C13.0158 23.1744 13.6808 23.4515 14.5452 23.4515C15.3876 23.4515 16.0304 23.1855 16.4738 22.6535C16.9171 22.1215 17.1388 21.39 17.1388 20.459V4.1665H21.827Z" fill="white"/>
</g>
<defs>
<clipPath id="clip0_3577_126">
<rect width="32" height="32" rx="3.125" fill="white"/>
</clipPath>
</defs>
</svg>
